<svg viewBox="0 0 29.34 25.93" xmlns="http://www.w3.org/2000/svg">
  <defs>
    <style>.cls-1 {
      fill: #fff;
    }</style>
  </defs>
  <title>Element 17</title>
  <g data-name="Ebene 2" id="Ebene_2">
    <g id="Beantworten">
      <path class="cls-1"
            d="M21.73,10.71a7.61,7.61,0,1,0,7.61,7.61A7.6,7.6,0,0,0,21.73,10.71Zm5.2,8.78h-4v4H20.55v-4h-4V17.15h4v-4H22.9v4h4Z"/>
      <path class="cls-1"
            d="M15.06,11.63a9.75,9.75,0,0,0-1-.32,1.17,1.17,0,0,0-1,.17,6.53,6.53,0,0,1-6.73.1,1.73,1.73,0,0,0-1.45-.19A6,6,0,0,0,.59,15.33,16.24,16.24,0,0,0,0,21.05a.93.93,0,0,0,.42.63,14.44,14.44,0,0,0,2.28,1.17,20.35,20.35,0,0,0,11.07.8h0a8.82,8.82,0,0,1,1.26-12Z"/>
      <path class="cls-1" d="M9.63,10.6A5.3,5.3,0,1,0,4.35,5.27,5.29,5.29,0,0,0,9.63,10.6Z"/>
    </g>
  </g>
</svg>
