<svg viewBox="0 0 80 80" xmlns="http://www.w3.org/2000/svg">
  <defs>
    <style>.cls-1 {
      fill: #f5f6f7;
      stroke: #003064;
      stroke-miterlimit: 10;
    }

    .cls-2 {
      fill: #003064;
    }</style>
  </defs>
  <title>AppWebdesign</title>
  <g id="Dashboard">
    <g id="Back">
      <circle class="cls-1" cx="40" cy="40" r="34.5"/>
      <path class="cls-2"
            d="M24.18,54.13v-.51c0-1.88,0-3.76,0-5.64a1,1,0,0,1,.23-.65q9.48-9.51,19-19l.17-.15,6.64,6.66a2.28,2.28,0,0,0-.45.31Q40.49,44.42,31.2,53.73a1.29,1.29,0,0,1-1,.41c-1.79,0-3.59,0-5.38,0Z"/>
      <path class="cls-2"
            d="M45.63,26.15c1-1,2-2.11,3.13-3.16a1.71,1.71,0,0,1,2.41,0q2.09,2,4.14,4.14a1.7,1.7,0,0,1,0,2.4c-1.05,1.09-2.14,2.13-3.17,3.15Z"/>
    </g>
  </g>
</svg>
