<?xml version="1.0" encoding="utf-8"?>
<!--suppress CssUnknownProperty -->
<svg style="enable-background:new 0 0 32 32;" viewBox="0 0 32 32" x="0px"
     xmlns="http://www.w3.org/2000/svg" y="0px">
  <style type="text/css">
    .st22 {
      fill: #00267F;
    }
  </style>
  <g id="Backround">
  </g>
  <g id="Startseite">
    <g id="Sprache_auswählen">
    </g>
  </g>
  <g id="Detaileingabe">
  </g>
  <g id="Termineingabe">
  </g>
  <g id="Einstellungen">
  </g>
  <g id="Termineingabe_x5F_opionen">
  </g>
  <g id="Übersicht">
  </g>
  <g id="Bearbeiten">
  </g>
  <g id="Beantworten">
    <g>
      <path class="st22" d="M16,4C9.4,4,4,9.4,4,16c0,6.6,5.4,12,12,12s12-5.4,12-12C28,9.4,22.6,4,16,4z M21,19.7c0.4,0.4,0.4,1,0,1.3
			c-0.2,0.2-0.4,0.3-0.7,0.3s-0.5-0.1-0.7-0.3L16,17.3L12.3,21c-0.2,0.2-0.4,0.3-0.7,0.3S11.1,21.2,11,21c-0.4-0.4-0.4-1,0-1.3
			l3.7-3.7L11,12.3c-0.4-0.4-0.4-1,0-1.3s1-0.4,1.3,0l3.7,3.7l3.7-3.7c0.4-0.4,1-0.4,1.3,0s0.4,1,0,1.3L17.3,16L21,19.7z"/>
    </g>
  </g>
  <g id="Links">
  </g>
  <g id="Header_x2F_Back">
  </g>
</svg>
