<?xml version="1.0" encoding="utf-8"?>
<!--suppress CssUnknownProperty, XmlUnusedNamespaceDeclaration -->
<svg style="enable-background:new 0 0 38 38;" viewBox="0 0 38 38" x="0px"
     xmlns="http://www.w3.org/2000/svg" xmlns:xlink="http://www.w3.org/1999/xlink" y="0px">
  <style type="text/css">
    .st6 {
      fill: #666666;
    }
  </style>
  <g id="Backround">
  </g>
  <g id="Startseite">
    <g id="Sprache_auswählen">
    </g>
  </g>
  <g id="Detaileingabe">
  </g>
  <g id="Termineingabe">
  </g>
  <g id="Einstellungen">
  </g>
  <g id="Termineingabe_x5F_opionen">
  </g>
  <g id="Übersicht">
  </g>
  <g id="Bearbeiten">
  </g>
  <g id="Beantworten">
    <g>
      <path class="st6" d="M19,4.8c-8.3,0-15,5.6-15,12.5c0,3.5,1.7,6.6,4.5,8.9l-1.2,6.9l6.7-4c1.5,0.4,3.2,0.7,4.9,0.7
			c8.3,0,15-5.6,15-12.5S27.3,4.8,19,4.8z M10.5,19.3c-1.3,0-2.4-1.1-2.4-2.4c0-1.3,1.1-2.4,2.4-2.4s2.4,1.1,2.4,2.4
			C12.9,18.2,11.8,19.3,10.5,19.3z M19,19.3c-1.3,0-2.4-1.1-2.4-2.4c0-1.3,1.1-2.4,2.4-2.4s2.4,1.1,2.4,2.4
			C21.4,18.2,20.3,19.3,19,19.3z M27.5,19.3c-1.3,0-2.4-1.1-2.4-2.4c0-1.3,1.1-2.4,2.4-2.4c1.3,0,2.4,1.1,2.4,2.4
			C30,18.2,28.9,19.3,27.5,19.3z"/>
    </g>
  </g>
  <g id="Links">
  </g>
  <g id="Header_x2F_Back">
  </g>
</svg>
