<?xml version="1.0" encoding="utf-8"?>
<!--suppress CssUnknownProperty, XmlUnusedNamespaceDeclaration -->
<svg style="enable-background:new 0 0 29 29;" viewBox="0 0 29 29" x="0px"
     xmlns="http://www.w3.org/2000/svg" xmlns:xlink="http://www.w3.org/1999/xlink" y="0px">
  <style type="text/css">
    .st22 {
      fill: #00267F;
    }
  </style>
  <g id="Backround">
  </g>
  <g id="Startseite">
    <g id="Sprache_auswählen">
    </g>
  </g>
  <g id="Detaileingabe">
  </g>
  <g id="Termineingabe">
  </g>
  <g id="Einstellungen">
  </g>
  <g id="Termineingabe_x5F_opionen">
  </g>
  <g id="Übersicht">
  </g>
  <g id="Bearbeiten">
  </g>
  <g id="Beantworten">
    <g>
      <g>
        <path class="st22" d="M2.6,26.2c0-0.2,0-0.3,0-0.4c0-1.4,0-2.8,0-4.2c0-0.2,0.1-0.4,0.2-0.5c4.8-4.8,9.5-9.5,14.3-14.3
				c0,0,0.1-0.1,0.1-0.1c1.6,1.7,3.3,3.3,5,5c-0.1,0.1-0.2,0.1-0.3,0.2c-4.7,4.7-9.3,9.3-14,14c-0.2,0.2-0.4,0.3-0.8,0.3
				c-1.3,0-2.7,0-4,0C2.9,26.2,2.8,26.2,2.6,26.2z"/>
      </g>
      <g>
        <path class="st22" d="M18.7,5.1c0.8-0.8,1.5-1.6,2.4-2.4c0.5-0.5,1.3-0.5,1.8,0C24,3.8,25,4.8,26,5.9c0.5,0.5,0.5,1.3,0,1.8
				c-0.8,0.8-1.6,1.6-2.4,2.4C22,8.4,20.4,6.8,18.7,5.1z"/>
      </g>
    </g>
  </g>
  <g id="Links">
  </g>
  <g id="Header_x2F_Back">
  </g>
</svg>
