<svg viewBox="0 0 23.8 23.81" xmlns="http://www.w3.org/2000/svg">
  <defs>
    <style>.cls-1 {
      fill: #fff;
    }</style>
  </defs>
  <title>Element 16</title>
  <g data-name="Ebene 2" id="Ebene_2">
    <g id="Beantworten">
      <path class="cls-1"
            d="M0,23.8v-.39C0,22,0,20.59,0,19.17a.75.75,0,0,1,.17-.49Q7.32,11.53,14.47,4.39a.71.71,0,0,1,.13-.12l5,5a2.72,2.72,0,0,0-.34.24q-7,7-14,14a1,1,0,0,1-.77.32c-1.35,0-2.69,0-4,0Z"/>
      <path class="cls-1"
            d="M16.13,2.75C16.9,2,17.68,1.16,18.5.37a1.27,1.27,0,0,1,1.8,0q1.57,1.55,3.12,3.12a1.29,1.29,0,0,1,0,1.81c-.79.81-1.61,1.6-2.38,2.37Z"/>
    </g>
  </g>
</svg>
