<svg viewBox="0 0 33 33" xmlns="http://www.w3.org/2000/svg">
  <defs>
    <style>.cls-1 {
      fill: #003064;
    }</style>
  </defs>
  <title>_</title>
  <g id="Beantworten">
    <path class="cls-1"
          d="M24.54,18.39a8.78,8.78,0,0,1-8.78-8.78A8.64,8.64,0,0,1,16.16,7a12,12,0,1,0,9.6,11.76c0-.16,0-.31,0-.46A9.25,9.25,0,0,1,24.54,18.39ZM19.62,24.9a1.27,1.27,0,0,1-1,.52,1.28,1.28,0,0,1-.74-.24l-5.66-4.1a1.27,1.27,0,0,1-.53-1V12.63a1.27,1.27,0,1,1,2.54,0V19.4l5.14,3.72A1.28,1.28,0,0,1,19.62,24.9Z"/>
    <path class="cls-1" d="M29.26,4.9a6.66,6.66,0,1,0,0,9.42A6.68,6.68,0,0,0,29.26,4.9Zm-1.88,7.54H21.71V6.78h5.67Z"/>
  </g>
</svg>
