<svg viewBox="0 0 38 38" xmlns="http://www.w3.org/2000/svg">
  <defs>
    <style>.cls-1 {
      fill: #666;
    }</style>
  </defs>
  <title>icn_ort</title>
  <g id="Beantworten">
    <path class="cls-1"
          d="M19,35c-1.19-2-2.36-3.86-3.52-5.79A87.62,87.62,0,0,1,9.71,18.6,18.09,18.09,0,0,1,8.51,15a9.2,9.2,0,0,1,1.72-7.35A10.18,10.18,0,0,1,21.17,3.26c4.47.93,7.2,3.84,8.27,8.28a8.71,8.71,0,0,1-.61,5.69c-1.1,2.42-2.2,4.84-3.5,7.16-2,3.49-4.09,6.89-6.15,10.33A3.07,3.07,0,0,1,19,35Zm5.17-21.31A5.16,5.16,0,1,0,19,18.84,5.17,5.17,0,0,0,24.15,13.69Z"/>
  </g>
</svg>
