<?xml version="1.0" encoding="utf-8"?>
<svg
  height="166"
  id="svg2"
  style="enable-background:new 0 0 588.3 166;"
  viewBox="0 0 588.3 166"
  width="588.32782"
  x="0px"
  xml:space="preserve"
  xmlns="http://www.w3.org/2000/svg"
  y="0px"
>
<style type="text/css">
	.st0 {
    fill: #003064;
  }

  .st1 {
    fill: #D4004B;
  }
</style>
  <g>
	<path class="st0" d="M65.5,62.7H46v65.9H29.9V62.7H10.7V49.4h54.9v13.3H65.5z"/>
    <path class="st0" d="M86.9,129.6c-7.9,0-14.1-2.3-18.5-7.1c-4.4-4.7-6.7-11.4-6.7-20.2v-4.7c0-9.3,2-16.4,6.1-21.5
		c4.1-5,9.9-7.5,17.4-7.5c7.4,0,13,2.3,16.6,7.1c3.8,4.8,5.7,11.8,5.7,21v7.5H76.9c0.2,4.3,1.2,7.5,2.9,9.5c1.7,2,4.3,3,7.9,3
		c5.1,0,9.4-1.8,12.9-5.3l6,9.3c-1.9,2.7-4.7,4.8-8.2,6.3C95,128.8,91.1,129.6,86.9,129.6z M77.2,93.6h15.4v-1.4
		c-0.1-3.6-0.7-6.2-1.8-8c-1.1-1.8-3-2.8-5.7-2.8s-4.7,1-5.9,2.9C78.1,86.2,77.5,89.2,77.2,93.6z"/>
    <path class="st0" d="M145.5,84.6l-5.1-0.4c-4.2,0-7.1,1.9-8.5,5.5v38.8h-15.4V69.7H131l0.4,6.3c2.4-5,5.8-7.4,10.1-7.4
		c1.8,0,3.1,0.2,4.2,0.7L145.5,84.6z"/>
    <path class="st0" d="M167.9,69.7l0.4,5.4c3.4-4.3,8-6.5,13.7-6.5c5.9,0,10,2.7,12.4,8c3.3-5.3,8.2-8,14.4-8
		c10.3,0,15.5,7.1,15.9,21.4v38.6h-15.4V91c0-3.4-0.4-5.9-1.4-7.3c-1-1.4-2.6-2.2-4.8-2.2c-2.9,0-5,1.8-6.4,5.3l0.1,1.9v40h-15.4
		V91.1c0-3.3-0.4-5.8-1.3-7.3c-0.9-1.6-2.6-2.2-4.9-2.2c-2.7,0-4.8,1.4-6.3,4.3v42.7h-15.4V69.8h14.5V69.7z"/>
    <path class="st0" d="M236.1,54.5c0-2.4,0.8-4.3,2.3-5.9c1.6-1.6,3.6-2.3,6.1-2.3c2.6,0,4.6,0.8,6.1,2.3c1.6,1.6,2.3,3.4,2.3,5.9
		c0,2.3-0.8,4.3-2.2,5.9c-1.6,1.6-3.6,2.3-6.1,2.3s-4.7-0.8-6.1-2.3C236.8,58.8,236.1,56.8,236.1,54.5z M252.1,128.5h-15.4V69.7
		h15.4V128.5z"/>
    <path class="st0" d="M278.2,69.7l0.4,5.8c3.4-4.6,8-6.9,13.7-6.9c10.1,0,15.3,7.1,15.6,21.3v38.7h-15.4V91.1c0-3.3-0.4-5.8-1.4-7.2
		c-1-1.6-2.8-2.2-5.2-2.2c-2.8,0-5,1.4-6.5,4.3v42.7h-15.4V69.9h14.3V69.7z"/>
    <path class="st0" d="M322.5,128.5V81.2h-7.1V69.7h7.1v-5.3c0-6.4,1.8-11.5,5.1-15.2c3.4-3.7,8.1-5.4,14.1-5.4c1.8,0,4.1,0.3,7,1.1
		l-0.1,12.4c-1-0.3-2.3-0.4-3.8-0.4c-4.6,0-6.9,2.8-6.9,8.2v4.8h9.2v11.5h-9.2v47.3h-15.4V128.5z"/>
    <path class="st0" d="M437.8,97.3c0-9.7,1.7-16.9,4.9-21.6c3.2-4.8,8-7.1,14.2-7.1c4.6,0,8.3,2,11.3,5.9V45h15.5v83.6h-14l-0.7-6
		c-3.1,4.7-7.2,7.1-12.2,7.1c-6.2,0-10.9-2.3-14.1-7.1c-3.2-4.7-4.9-11.7-5-20.8L437.8,97.3L437.8,97.3z M453.2,101.2
		c0,5.8,0.7,9.9,1.9,12.2c1.2,2.3,3.3,3.4,6.2,3.4c3,0,5.3-1.3,6.9-4.1V85.9c-1.6-2.9-3.8-4.3-6.9-4.3c-2.8,0-4.9,1.1-6.2,3.4
		c-1.3,2.3-2,6.3-2,12.2v4H453.2z"/>
    <path class="st0" d="M518.8,129.6c-7.9,0-14.1-2.3-18.5-7.1c-4.4-4.7-6.7-11.4-6.7-20.2v-4.7c0-9.3,2-16.4,6.1-21.5
		c4.1-5,9.9-7.5,17.4-7.5c7.4,0,13,2.3,16.6,7.1c3.8,4.8,5.7,11.8,5.7,21v7.5h-30.6c0.2,4.3,1.2,7.5,2.9,9.5c1.7,2,4.3,3,7.9,3
		c5.1,0,9.4-1.8,12.9-5.3l6,9.3c-1.9,2.7-4.7,4.8-8.2,6.3C527,128.8,523,129.6,518.8,129.6z M509.2,93.6h15.4v-1.4
		c-0.1-3.6-0.7-6.2-1.8-8c-1.1-1.8-3-2.8-5.7-2.8c-2.7,0-4.7,1-5.9,2.9C510.2,86.2,509.4,89.2,509.2,93.6z"/>
    <path class="st0" d="M577.4,84.6l-5.1-0.4c-4.2,0-7.1,1.9-8.5,5.5v38.8h-15.4V69.7h14.5l0.4,6.3c2.4-5,5.8-7.4,10.1-7.4
		c1.8,0,3.1,0.2,4.2,0.7L577.4,84.6z"/>
    <path class="st0" d="M400.6,88.2h-15.8v-21h25.5v11.1C410.4,83.8,406,88.2,400.6,88.2z"/>
    <g>
      <path class="st0" d="M386.4,93.9c-0.6,0-1.1,0-1.7-0.1v34.7h15.4V90.7C396,92.7,391.3,93.9,386.4,93.9z"/>
      <path class="st0" d="M416.8,68.9c-1,5-3.2,9.7-6.3,13.5c0.6,0.3,1.1,0.8,1.4,1.3c1,1.6,1.4,3.9,1.4,7.2v37.5h15.4V89.8
			C428.6,77.5,424.6,70.5,416.8,68.9z"/>
	</g>
    <g>
      <path class="st1" d="M417.7,54.5c-2.2-8.3-7.7-15.3-15.1-19.8c-7.5-4.3-16.2-5.4-24.6-3.2c-17.3,4.7-27.6,22.5-23,39.7
          c2.2,8.3,7.7,15.4,15.1,19.8c5,2.9,10.5,4.3,16.2,4.3c2.8,0,5.7-0.3,8.4-1.1C412.1,89.7,422.4,71.8,417.7,54.5z M403,72.5
          c-2.6,4.4-6.7,7.7-11.7,9c-10.2,2.8-20.8-3.3-23.5-13.5c-1.3-5-0.7-10.1,1.9-14.5c2.6-4.4,6.7-7.7,11.7-9
          c10.2-2.8,20.8,3.3,23.5,13.5C406.3,62.9,405.6,68,403,72.5z"/>

      <rect class="st1" height="14.5" transform="matrix(0.5001 -0.866 0.866 0.5001 77.2814 366.7852)" width="44.5"
            x="334.1"
            y="109.2"/>
	</g>
</g>
</svg>
