<svg viewBox="0 0 38 38" xmlns="http://www.w3.org/2000/svg">
  <defs>
    <style>.cls-1 {
      fill: #666;
    }</style>
  </defs>
  <title>icn_passwort</title>
  <g id="Einstellungen">
    <path class="cls-1"
          d="M3.42,34.9c-.18-1.83-.36-3.6-.5-5.37A1,1,0,0,1,3.24,29Q9,23.13,14.87,17.32a.9.9,0,0,0,.27-1.08,10.21,10.21,0,1,1,9.4,7.1,17.37,17.37,0,0,1-2.92-.52.7.7,0,0,0-.79.18C16.94,26.92,13,30.82,9.14,34.73a1,1,0,0,1-.85.34C6.69,35,5.08,35,3.42,34.9ZM26.7,7.73a3,3,0,1,0,.1,6.07,3,3,0,0,0-.1-6.07Z"/>
  </g>
</svg>
