<svg viewBox="0 0 48 48" xmlns="http://www.w3.org/2000/svg">
  <defs>
    <style>.cls-1 {
      fill: none;
      stroke: #666;
      stroke-linecap: round;
      stroke-miterlimit: 10;
      stroke-width: 3px;
    }

    .cls-2 {
      fill: #666;
    }</style>
  </defs>
  <title>icn_undefined</title>
  <g id="Beantworten">
    <g data-name="Beantworten" id="Beantworten-2">
      <line class="cls-1" x1="15.7" x2="15.7" y1="4.8" y2="11.2"/>
      <line class="cls-1" x1="32.3" x2="32.3" y1="4.8" y2="11.2"/>
      <path class="cls-2"
            d="M38.1,12.9a2.8,2.8,0,0,1,2.8,2.8V37.4a2.8,2.8,0,0,1-2.8,2.8H9.9a2.8,2.8,0,0,1-2.8-2.8V15.7a2.8,2.8,0,0,1,2.8-2.8H38.1m0-3H9.9a5.8,5.8,0,0,0-5.8,5.8V37.4a5.8,5.8,0,0,0,5.8,5.8H38.1a5.8,5.8,0,0,0,5.8-5.8V15.7a5.8,5.8,0,0,0-5.8-5.8Z"/>
      <path class="cls-2"
            d="M24.2,16.5a6.49,6.49,0,0,0-4.3,1.3,4.44,4.44,0,0,0-1.6,3.7v.1h3.6a1.75,1.75,0,0,1,.7-1.6,2.27,2.27,0,0,1,1.6-.6,2.14,2.14,0,0,1,1.8.7,2.61,2.61,0,0,1,.6,1.8,4.14,4.14,0,0,1-.5,1.9,7,7,0,0,1-1.4,1.6,13.91,13.91,0,0,0-2.1,2A4.33,4.33,0,0,0,22,30h3.7a7.18,7.18,0,0,1,.2-1.7,3.54,3.54,0,0,1,1-1.2,10.44,10.44,0,0,0,2.4-2.3,5.29,5.29,0,0,0,.9-3,4.72,4.72,0,0,0-1.6-3.9,6.45,6.45,0,0,0-4.4-1.4ZM25.7,33H22v3.2h3.7V33Z"/>
    </g>
  </g>
</svg>
