<?xml version="1.0" encoding="utf-8"?>
<!--suppress XmlUnusedNamespaceDeclaration, CssUnknownProperty -->
<svg style="enable-background:new 0 0 48 48;" viewBox="0 0 48 48" x="0px"
     xmlns="http://www.w3.org/2000/svg" xmlns:xlink="http://www.w3.org/1999/xlink" y="0px">
  <style type="text/css">
    .st50 {
      fill: #F0932B;
    }
  </style>
  <g id="Backround">
  </g>
  <g id="Startseite">
    <g id="Sprache_auswählen">
    </g>
  </g>
  <g id="Detaileingabe">
  </g>
  <g id="Termineingabe">
  </g>
  <g id="Einstellungen">
  </g>
  <g id="Termineingabe_x5F_opionen">
  </g>
  <g id="Übersicht">
  </g>
  <g id="Bearbeiten">
  </g>
  <g id="Beantworten">
    <g>
      <path class="st50" d="M19.7,30.9c0-2.2,0.3-3.8,1-4.9c0.6-1,1.9-2.3,3.8-3.8c1.1-0.9,2-1.9,2.7-3c0.7-1.1,1-2.3,1-3.6
			c0-1.5-0.4-2.6-1.2-3.4c-0.8-0.8-1.9-1.2-3.3-1.2c-1.2,0-2.2,0.3-3,1c-0.8,0.7-1.2,1.7-1.2,3.1h-6.8l0-0.1c0-3,1-5.4,3-7
			c2.1-1.6,4.7-2.4,8-2.4c3.6,0,6.3,0.9,8.4,2.7c2,1.8,3,4.2,3,7.3c0,2-0.6,3.9-1.8,5.6c-1.2,1.7-2.7,3.1-4.4,4.3
			c-1,0.7-1.6,1.5-1.9,2.2c-0.3,0.8-0.5,1.8-0.5,3.1H19.7z M26.7,42.4h-7v-5.9h7V42.4z"/>
    </g>
  </g>
  <g id="Links">
  </g>
  <g id="Header_x2F_Back">
  </g>
</svg>
