<svg viewBox="0 0 38 38" xmlns="http://www.w3.org/2000/svg">
  <defs>
    <style>.cls-1 {
      fill: #666;
    }</style>
  </defs>
  <title>icn_username</title>
  <g id="Beantworten">
    <path class="cls-1"
          d="M19,33.66A38.49,38.49,0,0,1,11,33a9.56,9.56,0,0,1-2.8-1,1.53,1.53,0,0,1-.87-1.52,17.82,17.82,0,0,1,1.59-7.29,10.81,10.81,0,0,1,3.62-4.36c.48-.34.58-.35,1.08,0a9.33,9.33,0,0,0,6,1.6,9,9,0,0,0,4.53-1.56c.59-.4.63-.4,1.2,0a11.47,11.47,0,0,1,4.18,5.83,18.59,18.59,0,0,1,1,6A1.37,1.37,0,0,1,29.74,32a7.5,7.5,0,0,1-2.43.9,33.51,33.51,0,0,1-6.47.75C20.21,33.68,19.59,33.66,19,33.66Z"/>
    <path class="cls-1" d="M18.91,18.13a6.9,6.9,0,1,1,6.93-6.9A6.92,6.92,0,0,1,18.91,18.13Z"/>
  </g>
</svg>
